<svg width="10" height="10" viewBox="0 0 10 10" fill="none" xmlns="http://www.w3.org/2000/svg">
<g clip-path="url(#clip0_2004_388)">
<path d="M5.91103 5.00403L9.80145 1.11349C10.0546 0.860423 10.0546 0.451254 9.80145 0.19819C9.54839 -0.0548736 9.13922 -0.0548736 8.88616 0.19819L4.99561 4.08874L1.10518 0.19819C0.852001 -0.0548736 0.442951 -0.0548736 0.189887 0.19819C-0.0632956 0.451254 -0.0632956 0.860423 0.189887 1.11349L4.08031 5.00403L0.189887 8.89458C-0.0632956 9.14764 -0.0632956 9.55681 0.189887 9.80987C0.316004 9.93611 0.481829 9.99952 0.647535 9.99952C0.813242 9.99952 0.978948 9.93611 1.10518 9.80987L4.99561 5.91933L8.88616 9.80987C9.01239 9.93611 9.1781 9.99952 9.3438 9.99952C9.50951 9.99952 9.67522 9.93611 9.80145 9.80987C10.0546 9.55681 10.0546 9.14764 9.80145 8.89458L5.91103 5.00403Z" fill="#304352"/>
</g>
<defs>
<clipPath id="clip0_2004_388">
<rect width="9.99133" height="9.99133" fill="white"/>
</clipPath>
</defs>
</svg>
