<svg width="181" height="31" viewBox="0 0 181 31" fill="none" xmlns="http://www.w3.org/2000/svg">
<path d="M4.70081 30V29.244L8.01282 28.704V2.1H2.07282L-0.663185 9.228H-1.70719V1.2H21.7288V9.228H20.6488L17.9488 2.1H11.9728V28.704L15.2848 29.244V30H4.70081ZM25.1198 30V29.244L28.4318 28.704V2.496L25.1198 1.992V1.2H46.7918V9.444H45.8198L43.0478 2.1H32.3918V15.06H37.0718L39.1958 9.84H40.1318V21.216H39.1958L37.0358 15.924H32.3918V29.136H43.6958L46.6478 21.216H47.5838V30H25.1198ZM65.6812 30.72C63.0652 30.72 60.7732 30.084 58.8052 28.812C56.8372 27.54 55.3132 25.764 54.2332 23.484C53.1772 21.204 52.6492 18.576 52.6492 15.6C52.6492 12.624 53.1892 9.996 54.2692 7.716C55.3732 5.412 56.9212 3.636 58.9132 2.388C60.9292 1.116 63.2452 0.479998 65.8612 0.479998C66.8932 0.479998 67.9372 0.659998 68.9932 1.02C70.0732 1.38 71.0452 1.884 71.9092 2.532L74.3212 0.479998H75.0772V9.408H74.3212L72.0892 3.828C71.2492 3.06 70.2652 2.448 69.1372 1.992C68.0332 1.536 66.9412 1.308 65.8612 1.308C64.1812 1.308 62.6932 1.74 61.3972 2.604C60.1252 3.468 59.1292 4.728 58.4092 6.384C57.6892 8.04 57.3292 10.008 57.3292 12.288V18.876C57.3292 21.156 57.6772 23.124 58.3732 24.78C59.0692 26.436 60.0412 27.708 61.2892 28.596C62.5372 29.46 64.0012 29.892 65.6812 29.892C66.9052 29.892 68.1292 29.628 69.3532 29.1C70.5772 28.548 71.5972 27.816 72.4132 26.904L74.5012 21.108H75.2572V30.36H74.5012L71.9092 28.524C71.0452 29.22 70.0612 29.76 68.9572 30.144C67.8532 30.528 66.7612 30.72 65.6812 30.72ZM80.0494 30V29.244L83.3614 28.704V2.496L80.0494 1.992V1.2H90.6334V1.992L87.3214 2.496V14.304H101.001V2.496L97.6534 1.992V1.2H108.309V1.992L104.961 2.496V28.704L108.309 29.244V30H97.6534V29.244L101.001 28.704V15.204H87.3214V28.704L90.6334 29.244V30H80.0494ZM112.386 30V29.244L115.734 27.804V3.396L112.386 1.992V1.2H119.082L134.598 22.944V3.396L131.25 1.992V1.2H138.918V1.992L135.498 3.396V30H134.598L116.634 4.764V27.804L120.09 29.244V30H112.386ZM142.678 30V29.244L145.99 28.704V2.496L142.678 1.992V1.2H153.262V1.992L149.95 2.496V28.704L153.262 29.244V30H142.678ZM170.759 30.72C168.143 30.72 165.851 30.084 163.883 28.812C161.915 27.54 160.391 25.764 159.311 23.484C158.255 21.204 157.727 18.576 157.727 15.6C157.727 12.624 158.267 9.996 159.347 7.716C160.451 5.412 161.999 3.636 163.991 2.388C166.007 1.116 168.323 0.479998 170.939 0.479998C171.971 0.479998 173.015 0.659998 174.071 1.02C175.151 1.38 176.123 1.884 176.987 2.532L179.399 0.479998H180.155V9.408H179.399L177.167 3.828C176.327 3.06 175.343 2.448 174.215 1.992C173.111 1.536 172.019 1.308 170.939 1.308C169.259 1.308 167.771 1.74 166.475 2.604C165.203 3.468 164.207 4.728 163.487 6.384C162.767 8.04 162.407 10.008 162.407 12.288V18.876C162.407 21.156 162.755 23.124 163.451 24.78C164.147 26.436 165.119 27.708 166.367 28.596C167.615 29.46 169.079 29.892 170.759 29.892C171.983 29.892 173.207 29.628 174.431 29.1C175.655 28.548 176.675 27.816 177.491 26.904L179.579 21.108H180.335V30.36H179.579L176.987 28.524C176.123 29.22 175.139 29.76 174.035 30.144C172.931 30.528 171.839 30.72 170.759 30.72Z" fill="white"/>
</svg>
